<mxfile host="app.diagrams.net" modified="2022-10-01T02:34:18.322Z" agent="5.0 (Windows NT 10.0; Win64; x64) AppleWebKit/537.36 (KHTML, like Gecko) Chrome/104.0.0.0 Safari/537.36" etag="yg1riYfC45V3MR2QtiE1" version="20.3.6" type="github">
  <diagram id="NzKtBDqk_wFHkkDgxbxO" name="Page-1">
    <mxGraphModel dx="1607" dy="1104" grid="1" gridSize="10" guides="1" tooltips="1" connect="1" arrows="1" fold="1" page="1" pageScale="1" pageWidth="827" pageHeight="1169" math="0" shadow="0">
      <root>
        <mxCell id="0" />
        <mxCell id="1" parent="0" />
        <mxCell id="hBJ_GhvKocMru38bKinS-1" value="" style="sketch=0;points=[[0,0,0],[0.25,0,0],[0.5,0,0],[0.75,0,0],[1,0,0],[0,1,0],[0.25,1,0],[0.5,1,0],[0.75,1,0],[1,1,0],[0,0.25,0],[0,0.5,0],[0,0.75,0],[1,0.25,0],[1,0.5,0],[1,0.75,0]];outlineConnect=0;fontColor=#232F3E;gradientColor=#4D72F3;gradientDirection=north;fillColor=#3334B9;strokeColor=#ffffff;dashed=0;verticalLabelPosition=bottom;verticalAlign=top;align=center;html=1;fontSize=12;fontStyle=0;aspect=fixed;shape=mxgraph.aws4.resourceIcon;resIcon=mxgraph.aws4.database;" vertex="1" parent="1">
          <mxGeometry x="-399" y="30" width="78" height="78" as="geometry" />
        </mxCell>
        <mxCell id="hBJ_GhvKocMru38bKinS-5" value="" style="edgeStyle=orthogonalEdgeStyle;rounded=0;orthogonalLoop=1;jettySize=auto;html=1;" edge="1" parent="1" source="hBJ_GhvKocMru38bKinS-2" target="hBJ_GhvKocMru38bKinS-4">
          <mxGeometry relative="1" as="geometry" />
        </mxCell>
        <mxCell id="hBJ_GhvKocMru38bKinS-2" value="支付模块" style="rounded=0;whiteSpace=wrap;html=1;" vertex="1" parent="1">
          <mxGeometry x="-620" y="160" width="120" height="60" as="geometry" />
        </mxCell>
        <mxCell id="hBJ_GhvKocMru38bKinS-7" value="" style="edgeStyle=orthogonalEdgeStyle;rounded=0;orthogonalLoop=1;jettySize=auto;html=1;" edge="1" parent="1" source="hBJ_GhvKocMru38bKinS-4" target="hBJ_GhvKocMru38bKinS-6">
          <mxGeometry relative="1" as="geometry" />
        </mxCell>
        <mxCell id="hBJ_GhvKocMru38bKinS-4" value="凭证库" style="whiteSpace=wrap;html=1;rounded=0;" vertex="1" parent="1">
          <mxGeometry x="-420" y="160" width="120" height="60" as="geometry" />
        </mxCell>
        <mxCell id="hBJ_GhvKocMru38bKinS-6" value="凭证MQ" style="whiteSpace=wrap;html=1;rounded=0;" vertex="1" parent="1">
          <mxGeometry x="-220" y="160" width="120" height="60" as="geometry" />
        </mxCell>
        <mxCell id="hBJ_GhvKocMru38bKinS-10" style="edgeStyle=orthogonalEdgeStyle;rounded=0;orthogonalLoop=1;jettySize=auto;html=1;" edge="1" parent="1" source="hBJ_GhvKocMru38bKinS-8" target="hBJ_GhvKocMru38bKinS-2">
          <mxGeometry relative="1" as="geometry" />
        </mxCell>
        <mxCell id="hBJ_GhvKocMru38bKinS-12" value="" style="edgeStyle=orthogonalEdgeStyle;rounded=0;orthogonalLoop=1;jettySize=auto;html=1;" edge="1" parent="1" source="hBJ_GhvKocMru38bKinS-8" target="hBJ_GhvKocMru38bKinS-11">
          <mxGeometry relative="1" as="geometry" />
        </mxCell>
        <mxCell id="hBJ_GhvKocMru38bKinS-8" value="查询&lt;br&gt;代扣" style="whiteSpace=wrap;html=1;rounded=0;" vertex="1" parent="1">
          <mxGeometry x="-413" y="450" width="120" height="60" as="geometry" />
        </mxCell>
        <mxCell id="hBJ_GhvKocMru38bKinS-11" value="非凭证MQ" style="whiteSpace=wrap;html=1;rounded=0;" vertex="1" parent="1">
          <mxGeometry x="-213" y="450" width="120" height="60" as="geometry" />
        </mxCell>
        <mxCell id="hBJ_GhvKocMru38bKinS-15" value="" style="rounded=0;orthogonalLoop=1;jettySize=auto;html=1;" edge="1" parent="1" source="hBJ_GhvKocMru38bKinS-13" target="hBJ_GhvKocMru38bKinS-14">
          <mxGeometry relative="1" as="geometry" />
        </mxCell>
        <mxCell id="hBJ_GhvKocMru38bKinS-13" value="人行" style="ellipse;whiteSpace=wrap;html=1;" vertex="1" parent="1">
          <mxGeometry x="-500" y="310" width="120" height="80" as="geometry" />
        </mxCell>
        <mxCell id="hBJ_GhvKocMru38bKinS-14" value="代理行" style="whiteSpace=wrap;html=1;" vertex="1" parent="1">
          <mxGeometry x="-300" y="320" width="120" height="60" as="geometry" />
        </mxCell>
        <mxCell id="hBJ_GhvKocMru38bKinS-16" value="Table" style="shape=table;startSize=30;container=1;collapsible=0;childLayout=tableLayout;fontStyle=1;align=center;" vertex="1" parent="1">
          <mxGeometry x="-600" y="570" width="560" height="200" as="geometry" />
        </mxCell>
        <mxCell id="hBJ_GhvKocMru38bKinS-17" value="" style="shape=tableRow;horizontal=0;startSize=0;swimlaneHead=0;swimlaneBody=0;top=0;left=0;bottom=0;right=0;collapsible=0;dropTarget=0;fillColor=none;points=[[0,0.5],[1,0.5]];portConstraint=eastwest;" vertex="1" parent="hBJ_GhvKocMru38bKinS-16">
          <mxGeometry y="30" width="560" height="57" as="geometry" />
        </mxCell>
        <mxCell id="hBJ_GhvKocMru38bKinS-18" value="财政单位支付凭证" style="shape=partialRectangle;html=1;whiteSpace=wrap;connectable=0;fillColor=none;top=0;left=0;bottom=0;right=0;overflow=hidden;" vertex="1" parent="hBJ_GhvKocMru38bKinS-17">
          <mxGeometry width="187" height="57" as="geometry">
            <mxRectangle width="187" height="57" as="alternateBounds" />
          </mxGeometry>
        </mxCell>
        <mxCell id="hBJ_GhvKocMru38bKinS-19" value="802 授权支付&lt;br&gt;8209 托收&lt;br&gt;5201直接支付&lt;br&gt;" style="shape=partialRectangle;html=1;whiteSpace=wrap;connectable=0;fillColor=none;top=0;left=0;bottom=0;right=0;overflow=hidden;" vertex="1" parent="hBJ_GhvKocMru38bKinS-17">
          <mxGeometry x="187" width="186" height="57" as="geometry">
            <mxRectangle width="186" height="57" as="alternateBounds" />
          </mxGeometry>
        </mxCell>
        <mxCell id="hBJ_GhvKocMru38bKinS-20" value="" style="shape=partialRectangle;html=1;whiteSpace=wrap;connectable=0;fillColor=none;top=0;left=0;bottom=0;right=0;overflow=hidden;" vertex="1" parent="hBJ_GhvKocMru38bKinS-17">
          <mxGeometry x="373" width="187" height="57" as="geometry">
            <mxRectangle width="187" height="57" as="alternateBounds" />
          </mxGeometry>
        </mxCell>
        <mxCell id="hBJ_GhvKocMru38bKinS-21" value="" style="shape=tableRow;horizontal=0;startSize=0;swimlaneHead=0;swimlaneBody=0;top=0;left=0;bottom=0;right=0;collapsible=0;dropTarget=0;fillColor=none;points=[[0,0.5],[1,0.5]];portConstraint=eastwest;" vertex="1" parent="hBJ_GhvKocMru38bKinS-16">
          <mxGeometry y="87" width="560" height="56" as="geometry" />
        </mxCell>
        <mxCell id="hBJ_GhvKocMru38bKinS-22" value="人行" style="shape=partialRectangle;html=1;whiteSpace=wrap;connectable=0;fillColor=none;top=0;left=0;bottom=0;right=0;overflow=hidden;" vertex="1" parent="hBJ_GhvKocMru38bKinS-21">
          <mxGeometry width="187" height="56" as="geometry">
            <mxRectangle width="187" height="56" as="alternateBounds" />
          </mxGeometry>
        </mxCell>
        <mxCell id="hBJ_GhvKocMru38bKinS-23" value="5207 实拨资金&lt;br&gt;3208 退款&lt;br&gt;日报&lt;br&gt;对账" style="shape=partialRectangle;html=1;whiteSpace=wrap;connectable=0;fillColor=none;top=0;left=0;bottom=0;right=0;overflow=hidden;" vertex="1" parent="hBJ_GhvKocMru38bKinS-21">
          <mxGeometry x="187" width="186" height="56" as="geometry">
            <mxRectangle width="186" height="56" as="alternateBounds" />
          </mxGeometry>
        </mxCell>
        <mxCell id="hBJ_GhvKocMru38bKinS-24" value="额度_以指标替代" style="shape=partialRectangle;html=1;whiteSpace=wrap;connectable=0;fillColor=none;top=0;left=0;bottom=0;right=0;overflow=hidden;" vertex="1" parent="hBJ_GhvKocMru38bKinS-21">
          <mxGeometry x="373" width="187" height="56" as="geometry">
            <mxRectangle width="187" height="56" as="alternateBounds" />
          </mxGeometry>
        </mxCell>
        <mxCell id="hBJ_GhvKocMru38bKinS-25" value="" style="shape=tableRow;horizontal=0;startSize=0;swimlaneHead=0;swimlaneBody=0;top=0;left=0;bottom=0;right=0;collapsible=0;dropTarget=0;fillColor=none;points=[[0,0.5],[1,0.5]];portConstraint=eastwest;" vertex="1" parent="hBJ_GhvKocMru38bKinS-16">
          <mxGeometry y="143" width="560" height="57" as="geometry" />
        </mxCell>
        <mxCell id="hBJ_GhvKocMru38bKinS-26" value="" style="shape=partialRectangle;html=1;whiteSpace=wrap;connectable=0;fillColor=none;top=0;left=0;bottom=0;right=0;overflow=hidden;" vertex="1" parent="hBJ_GhvKocMru38bKinS-25">
          <mxGeometry width="187" height="57" as="geometry">
            <mxRectangle width="187" height="57" as="alternateBounds" />
          </mxGeometry>
        </mxCell>
        <mxCell id="hBJ_GhvKocMru38bKinS-27" value="" style="shape=partialRectangle;html=1;whiteSpace=wrap;connectable=0;fillColor=none;top=0;left=0;bottom=0;right=0;overflow=hidden;" vertex="1" parent="hBJ_GhvKocMru38bKinS-25">
          <mxGeometry x="187" width="186" height="57" as="geometry">
            <mxRectangle width="186" height="57" as="alternateBounds" />
          </mxGeometry>
        </mxCell>
        <mxCell id="hBJ_GhvKocMru38bKinS-28" value="" style="shape=partialRectangle;html=1;whiteSpace=wrap;connectable=0;fillColor=none;top=0;left=0;bottom=0;right=0;overflow=hidden;" vertex="1" parent="hBJ_GhvKocMru38bKinS-25">
          <mxGeometry x="373" width="187" height="57" as="geometry">
            <mxRectangle width="187" height="57" as="alternateBounds" />
          </mxGeometry>
        </mxCell>
        <mxCell id="hBJ_GhvKocMru38bKinS-29" value="&lt;ul&gt;&lt;li&gt;商业银行_实时支付并反馈&lt;/li&gt;&lt;li&gt;支付系统确认报文&amp;nbsp;&lt;/li&gt;&lt;li&gt;每日下午3点左右清算&lt;/li&gt;&lt;li&gt;凭证库之间经常丢包(造成对账问题)&lt;/li&gt;&lt;li&gt;对账报文(账户,科目汇总)&lt;/li&gt;&lt;li&gt;不及时处理可能影响支付&lt;/li&gt;&lt;li&gt;&lt;br&gt;&lt;/li&gt;&lt;/ul&gt;" style="text;strokeColor=none;fillColor=none;html=1;whiteSpace=wrap;verticalAlign=middle;overflow=hidden;" vertex="1" parent="1">
          <mxGeometry x="-600" y="820" width="560" height="80" as="geometry" />
        </mxCell>
      </root>
    </mxGraphModel>
  </diagram>
</mxfile>
